# xmcd CD database file
#
# Track frame offsets:
#	150
#	18536
#	31947
#	53791
#	75784
#	107863
#	121931
#	141083
#	157599
#	173901
#	190970
#	208695
#	227230
#	246981
#	266911
#
# Disc length: 3781 seconds
#
# Revision: 2
# Processed by: cddbd v1.5.2PL0 Copyright (c) Steve Scherf et al.
# Submitted via: CDex 1.60beta1
#
DISCID=c50ec30f
DTITLE=溝口肇 - yours
DYEAR=2005
DGENRE=New Age
TTITLE0=青春の輝き
TTITLE1=スマイル
TTITLE2=イングリッシュマン・イン・ニューヨーク
TTITLE3=ミスター・ロンリー
TTITLE4=ニュー・シネマ・パラダイス
TTITLE5=ウィル・ユー・ダンス
TTITLE6=イフ・ウィ・ホールド・オン・トゥゲザー
TTITLE7=白い恋人たち
TTITLE8=恋よさようなら
TTITLE9=遥かなる影
TTITLE10=メロディ・フェア
TTITLE11=いそしぎ
TTITLE12=雨音はショパンの調べ
TTITLE13=ロミオとジュリエット
TTITLE14=明日に架ける橋
EXTD=YEAR: 2005
EXTT0=
EXTT1=
EXTT2=
EXTT3=
EXTT4=
EXTT5=
EXTT6=
EXTT7=
EXTT8=
EXTT9=
EXTT10=
EXTT11=
EXTT12=
EXTT13=
EXTT14=
PLAYORDER=
